<svg width="377" height="80" viewBox="0 0 377 80" fill="none" xmlns="http://www.w3.org/2000/svg">
<path d="M0.0427938 0.199998V79.1H89.8928V0.199998H65.8928V20.15H24.0428V0.199998H0.0427938ZM24.0428 41.45H65.8928V58.1H24.0428V41.45Z" fill="#DE353A"/>
<path d="M117.181 58.85V47.9H184.231V0.199998H94.0811V19.1H161.281V29.15H94.2311V78.35H186.181V58.85H117.181Z" fill="#285FBF"/>
<path d="M190.519 0.199998V79.1H280.369V0.199998H256.369V20.15H214.519V0.199998H190.519ZM214.519 41.45H256.369V58.1H214.519V41.45Z" fill="#EEA045"/>
<path d="M307.658 58.85V47.9H374.708V0.199998H284.558V19.1H351.758V29.15H284.708V78.35H376.658V58.85H307.658Z" fill="#4FACA5"/>
</svg>
