<?xml version="1.0" encoding="UTF-8"?>
<svg id="Layer_2" data-name="Layer 2" xmlns="http://www.w3.org/2000/svg" viewBox="0 0 1334.1 738.9">
  <defs>
    <style>
      .cls-1 {
        fill: #f7b000;
      }

      .cls-2 {
        fill: #ef9d32;
      }

      .cls-3 {
        fill: #f40a01;
      }

      .cls-4 {
        fill: #f91400;
      }

      .cls-5, .cls-6 {
        fill: #ffce00;
      }

      .cls-7 {
        fill: #e2e2e2;
      }

      .cls-8 {
        fill: #ff9400;
      }

      .cls-9 {
        fill: #8e8e8e;
      }

      .cls-10 {
        fill: #6eb2ea;
      }

      .cls-11 {
        fill: #85b99e;
      }

      .cls-12 {
        fill: #595959;
      }

      .cls-6 {
        stroke: #f7b000;
        stroke-miterlimit: 10;
        stroke-width: 4px;
      }

      .cls-13 {
        fill: #4faca5;
      }

      .cls-13, .cls-14, .cls-15, .cls-16 {
        font-family: 'KOTRA_BOLD-Bold', KOTRA_BOLD;
        font-size: 57.75px;
        font-weight: 700;
      }

      .cls-13, .cls-14, .cls-15, .cls-16, .cls-17 {
        isolation: isolate;
      }

      .cls-14 {
        fill: #de353a;
      }

      .cls-15 {
        fill: #285fbf;
      }

      .cls-16 {
        fill: #eea045;
      }
    </style>
  </defs>
  <g id="Layer_1-2" data-name="Layer 1">
    <g>
      <g>
        <circle class="cls-12" cx="1013.9" cy="619.6" r="119.3" transform="translate(-141.16 898.41) rotate(-45)"/>
        <circle class="cls-9" cx="1013.9" cy="619.6" r="68"/>
      </g>
      <path class="cls-5" d="m1183,0H249.8C176.9,0,117.7,59.1,117.7,132.1v250.9h-33.9c-35.5,0-64.3,28.8-64.3,64.3v184c0,35.5,28.8,64.3,64.3,64.3h188.6c-14.9-21.8-23.6-48.3-23.6-76.7,0-75.2,61-136.2,136.2-136.2s136.2,61,136.2,136.2c0,28.4-8.7,54.8-23.6,76.7h402.6c-14.9-21.8-23.6-48.3-23.6-76.7,0-75.2,61-136.2,136.2-136.2s136.2,61,136.2,136.2c0,28.4-8.7,54.8-23.6,76.7h125.4c35.5,0,64.3-28.8,64.3-64.3V132.1c0-72.9-59.1-132.1-132.1-132.1Z"/>
      <path class="cls-7" d="m248.8,619c0-8,.7-15.9,2-23.6H36c-15.5,0-28,12.5-28,28v44.1c0,15.5,12.5,28,28,28h233.8c.8,0,1.6,0,2.4-.1-14.7-21.7-23.4-48-23.4-76.4Z"/>
      <path class="cls-7" d="m1306,595.4h-158.4c1.3,7.6,2,15.3,2,23.3,0,28.5-8.8,55-23.7,76.9h180.1c15.5,0,28-12.5,28-28v-44.1c0-15.5-12.5-28.1-28-28.1Z"/>
      <g>
        <circle class="cls-12" cx="385.2" cy="619.6" r="119.3"/>
        <circle class="cls-9" cx="385.2" cy="619.6" r="68"/>
      </g>
      <path class="cls-6" d="m796.6,119.9h-190.3c-16.8,0-30.5,13.6-30.5,30.5v488.1c0,16.8,13.6,30.5,30.5,30.5h190.3c16.8,0,30.5-13.6,30.5-30.5V150.4c0-16.9-13.6-30.5-30.5-30.5Z"/>
      <path class="cls-10" d="m348.4,321h-109.5c-10.6,0-19.2-8.6-19.2-19.2v-135.8c0-10.6,8.6-19.2,19.2-19.2h109.5c10.6,0,19.2,8.6,19.2,19.2v135.8c0,10.6-8.6,19.2-19.2,19.2Z"/>
      <path class="cls-10" d="m526.5,321h-109.5c-10.6,0-19.2-8.6-19.2-19.2v-135.8c0-10.6,8.6-19.2,19.2-19.2h109.5c10.6,0,19.2,8.6,19.2,19.2v135.8c0,10.6-8.6,19.2-19.2,19.2Z"/>
      <path class="cls-10" d="m984.8,321h-109.5c-10.6,0-19.2-8.6-19.2-19.2v-135.8c0-10.6,8.6-19.2,19.2-19.2h109.5c10.6,0,19.2,8.6,19.2,19.2v135.8c0,10.6-8.6,19.2-19.2,19.2Z"/>
      <path class="cls-10" d="m1160.5,321h-109.5c-10.6,0-19.2-8.6-19.2-19.2v-135.8c0-10.6,8.6-19.2,19.2-19.2h109.5c10.6,0,19.2,8.6,19.2,19.2v135.8c0,10.6-8.6,19.2-19.2,19.2Z"/>
      <path class="cls-10" d="m117.7,321h50.1c12.5,0,22.7-10.2,22.7-22.7v-128.9c0-12.5-10.2-22.7-22.7-22.7h-50.1v174.3h0Z"/>
      <path class="cls-10" d="m1315.1,321h-73c-18.2,0-33-10.2-33-22.7v-128.9c0-12.5,14.8-22.7,33-22.7h73v174.3Z"/>
      <path class="cls-1" d="m793,536.1h-183c-4.4,0-8-3.6-8-8v-2.9c0-4.4,3.6-8,8-8h183c4.4,0,8,3.6,8,8v2.9c0,4.4-3.6,8-8,8Z"/>
      <path class="cls-1" d="m793,569.6h-183c-4.4,0-8-3.6-8-8v-2.9c0-4.4,3.6-8,8-8h183c4.4,0,8,3.6,8,8v2.9c0,4.4-3.6,8-8,8Z"/>
      <path class="cls-1" d="m793,603h-183c-4.4,0-8-3.6-8-8v-2.9c0-4.4,3.6-8,8-8h183c4.4,0,8,3.6,8,8v2.9c0,4.4-3.6,8-8,8Z"/>
      <path class="cls-10" d="m782.5,321h-162c-10.6,0-19.2-8.6-19.2-19.2v-135.8c0-10.6,8.6-19.2,19.2-19.2h162.1c10.6,0,19.2,8.6,19.2,19.2v135.8c0,10.6-8.7,19.2-19.3,19.2Z"/>
      <path class="cls-11" d="m1321.6,368.1h-43.5c-6.9,0-12.5,5.6-12.5,12.5v72.9c0,6.9,5.6,12.5,12.5,12.5h43.5c6.9,0,12.5-5.6,12.5-12.5v-72.9c-.1-6.9-5.7-12.5-12.5-12.5Z"/>
      <path class="cls-3" d="m1315.1,523.3v-48.1c-1.1-.2-2.3-.3-3.4-.3-12.7,0-23,10.9-23,24.3s10.3,24.3,23,24.3c1.2,0,2.3-.1,3.4-.2Z"/>
      <path class="cls-8" d="m1315.1,580.8v-48.1c-1.1-.2-2.3-.3-3.4-.3-12.7,0-23,10.9-23,24.3s10.3,24.3,23,24.3c1.2.1,2.3,0,3.4-.2Z"/>
      <circle class="cls-4" cx="96.6" cy="553.5" r="21.1"/>
      <path class="cls-2" d="m34.8,481.2h-10c-13.7,0-24.8,11.2-24.8,24.8v49.8c0,13.7,11.2,24.8,24.8,24.8h10c13.7,0,24.8-11.2,24.8-24.8v-49.8c.1-13.6-11.1-24.8-24.8-24.8Z"/>
      <g class="cls-17">
        <text class="cls-14" transform="translate(856.02 394.45)"><tspan x="0" y="0">B</tspan></text>
        <text class="cls-15" transform="translate(892.52 394.45)"><tspan x="0" y="0">S</tspan></text>
        <text class="cls-16" transform="translate(927.62 394.45)"><tspan x="0" y="0">S</tspan></text>
        <text class="cls-13" transform="translate(962.72 394.45)"><tspan x="0" y="0">M</tspan></text>
      </g>
    </g>
  </g>
</svg>