<svg width="16" height="16" viewBox="0 0 16 16" fill="none" xmlns="http://www.w3.org/2000/svg">
<path d="M7.53329 12.8669C7.41107 12.7446 7.34707 12.5891 7.34129 12.4002C7.33552 12.2113 7.39396 12.0558 7.51663 11.9335L10.7833 8.66686H3.33329C3.14441 8.66686 2.98596 8.60286 2.85796 8.47486C2.72996 8.34686 2.66618 8.18864 2.66663 8.0002C2.66663 7.81131 2.73063 7.65286 2.85863 7.52486C2.98663 7.39686 3.14485 7.33308 3.33329 7.33353H10.7833L7.51663 4.06686C7.39441 3.94464 7.33596 3.78908 7.34129 3.6002C7.34663 3.41131 7.41063 3.25575 7.53329 3.13353C7.65552 3.01131 7.81107 2.9502 7.99996 2.9502C8.18885 2.9502 8.34441 3.01131 8.46663 3.13353L12.8666 7.53353C12.9333 7.58908 12.9806 7.65864 13.0086 7.7422C13.0366 7.82575 13.0504 7.91175 13.05 8.0002C13.05 8.08908 13.0362 8.17242 13.0086 8.2502C12.9811 8.32797 12.9337 8.4002 12.8666 8.46686L8.46663 12.8669C8.34441 12.9891 8.18885 13.0502 7.99996 13.0502C7.81107 13.0502 7.65552 12.9891 7.53329 12.8669Z" fill="#404040"/>
</svg>
